<mxfile host="app.diagrams.net" agent="Mozilla/5.0 (Windows NT 10.0; Win64; x64) AppleWebKit/537.36 (KHTML, like Gecko) Chrome/134.0.0.0 Safari/537.36" version="25.0.3">
  <diagram name="PÃ¡gina-1" id="rQ-5G9V3ON5l94QKUxnb">
    <mxGraphModel dx="1539" dy="745" grid="1" gridSize="10" guides="1" tooltips="1" connect="1" arrows="1" fold="1" page="1" pageScale="1" pageWidth="827" pageHeight="1169" math="0" shadow="0">
      <root>
        <mxCell id="0" />
        <mxCell id="1" parent="0" />
        <mxCell id="1ci5VpAqKBEdBf-5EcT8-1" value="Vehicle" style="swimlane;fontStyle=1;align=center;verticalAlign=top;childLayout=stackLayout;horizontal=1;startSize=26;horizontalStack=0;resizeParent=1;resizeParentMax=0;resizeLast=0;collapsible=1;marginBottom=0;whiteSpace=wrap;html=1;" vertex="1" parent="1">
          <mxGeometry x="280" y="190" width="160" height="180" as="geometry" />
        </mxCell>
        <mxCell id="1ci5VpAqKBEdBf-5EcT8-2" value="- matricula: String&lt;div&gt;- marca: String&lt;/div&gt;&lt;div&gt;- model: String&lt;/div&gt;&lt;div&gt;- preuBase: double&lt;/div&gt;&lt;div&gt;- motor: Motor&lt;/div&gt;&lt;div&gt;- rodes: Roda[]&lt;/div&gt;" style="text;strokeColor=none;fillColor=none;align=left;verticalAlign=top;spacingLeft=4;spacingRight=4;overflow=hidden;rotatable=0;points=[[0,0.5],[1,0.5]];portConstraint=eastwest;whiteSpace=wrap;html=1;" vertex="1" parent="1ci5VpAqKBEdBf-5EcT8-1">
          <mxGeometry y="26" width="160" height="104" as="geometry" />
        </mxCell>
        <mxCell id="1ci5VpAqKBEdBf-5EcT8-3" value="" style="line;strokeWidth=1;fillColor=none;align=left;verticalAlign=middle;spacingTop=-1;spacingLeft=3;spacingRight=3;rotatable=0;labelPosition=right;points=[];portConstraint=eastwest;strokeColor=inherit;" vertex="1" parent="1ci5VpAqKBEdBf-5EcT8-1">
          <mxGeometry y="130" width="160" height="8" as="geometry" />
        </mxCell>
        <mxCell id="1ci5VpAqKBEdBf-5EcT8-4" value="+ calcularPreu(dies: int): double" style="text;strokeColor=none;fillColor=none;align=left;verticalAlign=top;spacingLeft=4;spacingRight=4;overflow=hidden;rotatable=0;points=[[0,0.5],[1,0.5]];portConstraint=eastwest;whiteSpace=wrap;html=1;" vertex="1" parent="1ci5VpAqKBEdBf-5EcT8-1">
          <mxGeometry y="138" width="160" height="42" as="geometry" />
        </mxCell>
        <mxCell id="1ci5VpAqKBEdBf-5EcT8-5" value="Cotxe" style="swimlane;fontStyle=1;align=center;verticalAlign=top;childLayout=stackLayout;horizontal=1;startSize=26;horizontalStack=0;resizeParent=1;resizeParentMax=0;resizeLast=0;collapsible=1;marginBottom=0;whiteSpace=wrap;html=1;" vertex="1" parent="1">
          <mxGeometry x="80" y="440" width="160" height="90" as="geometry" />
        </mxCell>
        <mxCell id="1ci5VpAqKBEdBf-5EcT8-6" value="- nombrePlaces: int" style="text;strokeColor=none;fillColor=none;align=left;verticalAlign=top;spacingLeft=4;spacingRight=4;overflow=hidden;rotatable=0;points=[[0,0.5],[1,0.5]];portConstraint=eastwest;whiteSpace=wrap;html=1;" vertex="1" parent="1ci5VpAqKBEdBf-5EcT8-5">
          <mxGeometry y="26" width="160" height="26" as="geometry" />
        </mxCell>
        <mxCell id="1ci5VpAqKBEdBf-5EcT8-8" value="+ CalcularPreu(dies): double" style="text;strokeColor=none;fillColor=none;align=left;verticalAlign=top;spacingLeft=4;spacingRight=4;overflow=hidden;rotatable=0;points=[[0,0.5],[1,0.5]];portConstraint=eastwest;whiteSpace=wrap;html=1;" vertex="1" parent="1ci5VpAqKBEdBf-5EcT8-5">
          <mxGeometry y="52" width="160" height="38" as="geometry" />
        </mxCell>
        <mxCell id="1ci5VpAqKBEdBf-5EcT8-17" style="edgeStyle=orthogonalEdgeStyle;rounded=0;orthogonalLoop=1;jettySize=auto;html=1;" edge="1" parent="1" source="1ci5VpAqKBEdBf-5EcT8-9" target="1ci5VpAqKBEdBf-5EcT8-1">
          <mxGeometry relative="1" as="geometry" />
        </mxCell>
        <mxCell id="1ci5VpAqKBEdBf-5EcT8-9" value="Moto" style="swimlane;fontStyle=1;align=center;verticalAlign=top;childLayout=stackLayout;horizontal=1;startSize=26;horizontalStack=0;resizeParent=1;resizeParentMax=0;resizeLast=0;collapsible=1;marginBottom=0;whiteSpace=wrap;html=1;" vertex="1" parent="1">
          <mxGeometry x="280" y="440" width="160" height="90" as="geometry" />
        </mxCell>
        <mxCell id="1ci5VpAqKBEdBf-5EcT8-10" value="- cilindrada: int" style="text;strokeColor=none;fillColor=none;align=left;verticalAlign=top;spacingLeft=4;spacingRight=4;overflow=hidden;rotatable=0;points=[[0,0.5],[1,0.5]];portConstraint=eastwest;whiteSpace=wrap;html=1;" vertex="1" parent="1ci5VpAqKBEdBf-5EcT8-9">
          <mxGeometry y="26" width="160" height="26" as="geometry" />
        </mxCell>
        <mxCell id="1ci5VpAqKBEdBf-5EcT8-11" value="+ CalcularPreu(dies): double" style="text;strokeColor=none;fillColor=none;align=left;verticalAlign=top;spacingLeft=4;spacingRight=4;overflow=hidden;rotatable=0;points=[[0,0.5],[1,0.5]];portConstraint=eastwest;whiteSpace=wrap;html=1;" vertex="1" parent="1ci5VpAqKBEdBf-5EcT8-9">
          <mxGeometry y="52" width="160" height="38" as="geometry" />
        </mxCell>
        <mxCell id="1ci5VpAqKBEdBf-5EcT8-12" value="Furgoneta" style="swimlane;fontStyle=1;align=center;verticalAlign=top;childLayout=stackLayout;horizontal=1;startSize=26;horizontalStack=0;resizeParent=1;resizeParentMax=0;resizeLast=0;collapsible=1;marginBottom=0;whiteSpace=wrap;html=1;" vertex="1" parent="1">
          <mxGeometry x="480" y="440" width="160" height="90" as="geometry" />
        </mxCell>
        <mxCell id="1ci5VpAqKBEdBf-5EcT8-13" value="- CapacitatCarga: int" style="text;strokeColor=none;fillColor=none;align=left;verticalAlign=top;spacingLeft=4;spacingRight=4;overflow=hidden;rotatable=0;points=[[0,0.5],[1,0.5]];portConstraint=eastwest;whiteSpace=wrap;html=1;" vertex="1" parent="1ci5VpAqKBEdBf-5EcT8-12">
          <mxGeometry y="26" width="160" height="26" as="geometry" />
        </mxCell>
        <mxCell id="1ci5VpAqKBEdBf-5EcT8-14" value="+ CalcularPreu(dies): double" style="text;strokeColor=none;fillColor=none;align=left;verticalAlign=top;spacingLeft=4;spacingRight=4;overflow=hidden;rotatable=0;points=[[0,0.5],[1,0.5]];portConstraint=eastwest;whiteSpace=wrap;html=1;" vertex="1" parent="1ci5VpAqKBEdBf-5EcT8-12">
          <mxGeometry y="52" width="160" height="38" as="geometry" />
        </mxCell>
        <mxCell id="1ci5VpAqKBEdBf-5EcT8-19" style="edgeStyle=orthogonalEdgeStyle;rounded=0;orthogonalLoop=1;jettySize=auto;html=1;entryX=0.5;entryY=1.024;entryDx=0;entryDy=0;entryPerimeter=0;" edge="1" parent="1" source="1ci5VpAqKBEdBf-5EcT8-12" target="1ci5VpAqKBEdBf-5EcT8-4">
          <mxGeometry relative="1" as="geometry" />
        </mxCell>
        <mxCell id="1ci5VpAqKBEdBf-5EcT8-20" style="edgeStyle=orthogonalEdgeStyle;rounded=0;orthogonalLoop=1;jettySize=auto;html=1;entryX=0.499;entryY=1;entryDx=0;entryDy=0;entryPerimeter=0;" edge="1" parent="1" source="1ci5VpAqKBEdBf-5EcT8-5" target="1ci5VpAqKBEdBf-5EcT8-4">
          <mxGeometry relative="1" as="geometry" />
        </mxCell>
        <mxCell id="1ci5VpAqKBEdBf-5EcT8-21" value="GestorLloguers" style="swimlane;fontStyle=1;align=center;verticalAlign=top;childLayout=stackLayout;horizontal=1;startSize=26;horizontalStack=0;resizeParent=1;resizeParentMax=0;resizeLast=0;collapsible=1;marginBottom=0;whiteSpace=wrap;html=1;" vertex="1" parent="1">
          <mxGeometry x="-40" y="20" width="370" height="60" as="geometry" />
        </mxCell>
        <mxCell id="1ci5VpAqKBEdBf-5EcT8-22" value="calcularIngressosTotals(vehicles: List&amp;lt;Vehicle&amp;gt;, dies: int): double" style="text;strokeColor=none;fillColor=none;align=left;verticalAlign=top;spacingLeft=4;spacingRight=4;overflow=hidden;rotatable=0;points=[[0,0.5],[1,0.5]];portConstraint=eastwest;whiteSpace=wrap;html=1;" vertex="1" parent="1ci5VpAqKBEdBf-5EcT8-21">
          <mxGeometry y="26" width="370" height="34" as="geometry" />
        </mxCell>
        <mxCell id="1ci5VpAqKBEdBf-5EcT8-24" value="Lloguer" style="swimlane;fontStyle=1;align=center;verticalAlign=top;childLayout=stackLayout;horizontal=1;startSize=26;horizontalStack=0;resizeParent=1;resizeParentMax=0;resizeLast=0;collapsible=1;marginBottom=0;whiteSpace=wrap;html=1;" vertex="1" parent="1">
          <mxGeometry x="480" y="20" width="160" height="120" as="geometry" />
        </mxCell>
        <mxCell id="1ci5VpAqKBEdBf-5EcT8-25" value="- client: String&lt;div&gt;- vehicle: Vehicle&lt;/div&gt;&lt;div&gt;-dies: int&lt;/div&gt;" style="text;strokeColor=none;fillColor=none;align=left;verticalAlign=top;spacingLeft=4;spacingRight=4;overflow=hidden;rotatable=0;points=[[0,0.5],[1,0.5]];portConstraint=eastwest;whiteSpace=wrap;html=1;" vertex="1" parent="1ci5VpAqKBEdBf-5EcT8-24">
          <mxGeometry y="26" width="160" height="54" as="geometry" />
        </mxCell>
        <mxCell id="1ci5VpAqKBEdBf-5EcT8-26" value="" style="line;strokeWidth=1;fillColor=none;align=left;verticalAlign=middle;spacingTop=-1;spacingLeft=3;spacingRight=3;rotatable=0;labelPosition=right;points=[];portConstraint=eastwest;strokeColor=inherit;" vertex="1" parent="1ci5VpAqKBEdBf-5EcT8-24">
          <mxGeometry y="80" width="160" height="8" as="geometry" />
        </mxCell>
        <mxCell id="1ci5VpAqKBEdBf-5EcT8-27" value="+ calcularPreu(): double" style="text;strokeColor=none;fillColor=none;align=left;verticalAlign=top;spacingLeft=4;spacingRight=4;overflow=hidden;rotatable=0;points=[[0,0.5],[1,0.5]];portConstraint=eastwest;whiteSpace=wrap;html=1;" vertex="1" parent="1ci5VpAqKBEdBf-5EcT8-24">
          <mxGeometry y="88" width="160" height="32" as="geometry" />
        </mxCell>
        <mxCell id="1ci5VpAqKBEdBf-5EcT8-28" style="edgeStyle=orthogonalEdgeStyle;rounded=0;orthogonalLoop=1;jettySize=auto;html=1;entryX=1;entryY=0.106;entryDx=0;entryDy=0;entryPerimeter=0;" edge="1" parent="1" source="1ci5VpAqKBEdBf-5EcT8-24" target="1ci5VpAqKBEdBf-5EcT8-1">
          <mxGeometry relative="1" as="geometry" />
        </mxCell>
        <mxCell id="1ci5VpAqKBEdBf-5EcT8-29" value="" style="endArrow=none;dashed=1;html=1;dashPattern=1 3;strokeWidth=2;rounded=0;entryX=0.47;entryY=1.059;entryDx=0;entryDy=0;entryPerimeter=0;exitX=0;exitY=0.061;exitDx=0;exitDy=0;exitPerimeter=0;" edge="1" parent="1" source="1ci5VpAqKBEdBf-5EcT8-1" target="1ci5VpAqKBEdBf-5EcT8-22">
          <mxGeometry width="50" height="50" relative="1" as="geometry">
            <mxPoint x="370" y="240" as="sourcePoint" />
            <mxPoint x="420" y="190" as="targetPoint" />
          </mxGeometry>
        </mxCell>
        <mxCell id="1ci5VpAqKBEdBf-5EcT8-37" style="edgeStyle=orthogonalEdgeStyle;rounded=0;orthogonalLoop=1;jettySize=auto;html=1;entryX=0;entryY=0.5;entryDx=0;entryDy=0;" edge="1" parent="1" source="1ci5VpAqKBEdBf-5EcT8-30" target="1ci5VpAqKBEdBf-5EcT8-2">
          <mxGeometry relative="1" as="geometry" />
        </mxCell>
        <mxCell id="1ci5VpAqKBEdBf-5EcT8-30" value="Motor" style="swimlane;fontStyle=1;align=center;verticalAlign=top;childLayout=stackLayout;horizontal=1;startSize=26;horizontalStack=0;resizeParent=1;resizeParentMax=0;resizeLast=0;collapsible=1;marginBottom=0;whiteSpace=wrap;html=1;" vertex="1" parent="1">
          <mxGeometry x="-30" y="185" width="160" height="80" as="geometry" />
        </mxCell>
        <mxCell id="1ci5VpAqKBEdBf-5EcT8-31" value="- tipus: String" style="text;strokeColor=none;fillColor=none;align=left;verticalAlign=top;spacingLeft=4;spacingRight=4;overflow=hidden;rotatable=0;points=[[0,0.5],[1,0.5]];portConstraint=eastwest;whiteSpace=wrap;html=1;" vertex="1" parent="1ci5VpAqKBEdBf-5EcT8-30">
          <mxGeometry y="26" width="160" height="26" as="geometry" />
        </mxCell>
        <mxCell id="1ci5VpAqKBEdBf-5EcT8-32" value="-potencia: int" style="text;strokeColor=none;fillColor=none;align=left;verticalAlign=top;spacingLeft=4;spacingRight=4;overflow=hidden;rotatable=0;points=[[0,0.5],[1,0.5]];portConstraint=eastwest;whiteSpace=wrap;html=1;" vertex="1" parent="1ci5VpAqKBEdBf-5EcT8-30">
          <mxGeometry y="52" width="160" height="28" as="geometry" />
        </mxCell>
        <mxCell id="1ci5VpAqKBEdBf-5EcT8-33" value="Roda" style="swimlane;fontStyle=1;align=center;verticalAlign=top;childLayout=stackLayout;horizontal=1;startSize=26;horizontalStack=0;resizeParent=1;resizeParentMax=0;resizeLast=0;collapsible=1;marginBottom=0;whiteSpace=wrap;html=1;" vertex="1" parent="1">
          <mxGeometry x="-30" y="295" width="160" height="80" as="geometry" />
        </mxCell>
        <mxCell id="1ci5VpAqKBEdBf-5EcT8-34" value="- marca: String" style="text;strokeColor=none;fillColor=none;align=left;verticalAlign=top;spacingLeft=4;spacingRight=4;overflow=hidden;rotatable=0;points=[[0,0.5],[1,0.5]];portConstraint=eastwest;whiteSpace=wrap;html=1;" vertex="1" parent="1ci5VpAqKBEdBf-5EcT8-33">
          <mxGeometry y="26" width="160" height="26" as="geometry" />
        </mxCell>
        <mxCell id="1ci5VpAqKBEdBf-5EcT8-35" value="- diametre: int" style="text;strokeColor=none;fillColor=none;align=left;verticalAlign=top;spacingLeft=4;spacingRight=4;overflow=hidden;rotatable=0;points=[[0,0.5],[1,0.5]];portConstraint=eastwest;whiteSpace=wrap;html=1;" vertex="1" parent="1ci5VpAqKBEdBf-5EcT8-33">
          <mxGeometry y="52" width="160" height="28" as="geometry" />
        </mxCell>
        <mxCell id="1ci5VpAqKBEdBf-5EcT8-36" style="edgeStyle=orthogonalEdgeStyle;rounded=0;orthogonalLoop=1;jettySize=auto;html=1;entryX=0;entryY=0.5;entryDx=0;entryDy=0;" edge="1" parent="1" source="1ci5VpAqKBEdBf-5EcT8-34" target="1ci5VpAqKBEdBf-5EcT8-2">
          <mxGeometry relative="1" as="geometry" />
        </mxCell>
      </root>
    </mxGraphModel>
  </diagram>
</mxfile>
